<?xml version="1.0" encoding="utf-8"?>
<!-- Generator: Adobe Illustrator 28.1.0, SVG Export Plug-In . SVG Version: 6.00 Build 0)  -->
<svg version="1.1" id="Layer_2_00000144325288561681701350000009434828338818895536_"
	 xmlns="http://www.w3.org/2000/svg" xmlns:xlink="http://www.w3.org/1999/xlink" x="0px" y="0px" viewBox="0 0 38.7 40.3"
	 style="enable-background:new 0 0 38.7 40.3;" xml:space="preserve">
<style type="text/css">
	.st0{fill:#7D7C80;}
	.st1{fill:#FFFFFF;}
	.st2{fill:#8A898C;}
	.st3{opacity:0.6;}
	.st4{fill:#FFA4BE;}
	.st5{fill:#57B21B;}
	.st6{fill:#EA6E7D;}
	.st7{fill:#DF374D;}
	.st8{fill:#F7C8B9;}
</style>
<g id="_본문">
	<g>
		<g>
			<g>
				<path class="st0" d="M27.2,29.4c0,0,4.9-0.7,6.7-3.3c0,0,1.4-2.1,3.3-1.2c0.2,0.1,0.4,0.2,0.5,0.3c0.6,0.4,1.2,1.4,0.7,3
					c0,0-1.3,3.8-4.6,5.4c0,0-2.1,1-4,1.5c-1.1,0.3-2.7,0.7-2.9,0.5c-0.4-0.5,0.3-2.1-0.2-2.7C26.7,32.9,25,30.3,27.2,29.4
					L27.2,29.4z"/>
				<path d="M29.5,35.5h-0.1c-0.1,0-0.2-0.1-0.2-0.2s0.1-0.2,0.2-0.2c0.6,0,1.8-0.2,4.5-1.7c3.6-2.1,4-4.7,4-4.8
					c0.5-2.3-0.6-3.4-0.8-3.5c-1.7-0.9-3.1,1-3.1,1.1c-1.1,1.5-3.1,2.5-4.6,2.9c-0.1,0-0.3,0-0.3-0.1s0-0.3,0.1-0.3
					c1.4-0.5,3.3-1.3,4.3-2.8c0,0,1.7-2.4,3.8-1.2l0,0c0.1,0,1.5,1.2,1,4c0,0.1,0,2.8-4.2,5.1C32,34.9,30.4,35.5,29.5,35.5
					L29.5,35.5z"/>
			</g>
			<g>
				<path class="st0" d="M5.6,34.7C5.6,34.7,5.6,34.8,5.6,34.7L5.6,34.7C5.6,34.8,5.6,34.7,5.6,34.7L5.6,34.7z"/>
				<path class="st0" d="M29.2,35.5L29.2,35.5L29.2,35.5z"/>
				<path d="M29.4,35.2L29.4,35.2c0.1,0,0.3,0.1,0.3,0.2c-0.2-0.9-0.4-1.7-0.6-2.3c0-0.1-0.2-0.2-0.3-0.2l0.1,0.2
					C29.1,33.9,29.3,34.7,29.4,35.2L29.4,35.2z"/>
				<path d="M29.8,35.6L29.8,35.6C29.8,35.6,29.7,35.5,29.8,35.6C29.7,35.5,29.7,35.6,29.8,35.6L29.8,35.6z"/>
				<path d="M5,34.8L5,34.8L5,34.8L5,34.8L5,34.8z"/>
				<path d="M5.3,34.5L5.3,34.5C6.4,30.2,8,28.3,8,28.3l19.2-0.4l0.1,0.2c0.1,0,0.2-0.1,0.2-0.2s-0.1-0.2-0.2-0.2L8.1,28.1
					c-0.1,0-0.1,0-0.2,0.1c-0.1,0.1-1.7,2-2.8,6.5C5.1,34.6,5.2,34.5,5.3,34.5L5.3,34.5z"/>
				<path d="M8.1,28.3c0,0-1.6,1.9-2.7,6.2c0.1,0,0.2,0.1,0.2,0.2l0,0l0,0l0,0l0,0c0.9-3.8,2.3-5.8,2.6-6.2l19.1-0.4c0,0,0,0,0.1,0
					l-0.1-0.2L8.1,28.3L8.1,28.3z"/>
				<path d="M28.7,33.3c0.1,0.4,0.3,1.1,0.5,2.2l0,0l0,0l0,0l0,0c0-0.1,0.1-0.2,0.2-0.2c-0.1-0.5-0.3-1.3-0.5-2L28.8,33l0,0
					C28.7,33,28.6,33.2,28.7,33.3L28.7,33.3z"/>
				<path class="st1" d="M29.2,35.5L29.2,35.5L29.2,35.5L29.2,35.5C29.2,35.6,29.2,35.5,29.2,35.5L29.2,35.5z"/>
				<path class="st1" d="M29.4,36.3c0-0.1,0-0.2-0.1-0.3c0-0.1,0-0.2-0.1-0.3l0,0v-0.1l0,0c-12.4,4.2-22.6-0.2-23.6-0.7h0l0,0l0,0
					c0,0.1,0,0.2-0.1,0.3c0,0.1-0.1,0.2-0.1,0.3c-0.2,0.8-0.3,1.6-0.4,2.7h24.7C29.6,37.5,29.5,36.9,29.4,36.3L29.4,36.3z"/>
				<path d="M29.7,35.4L29.7,35.4C29.7,35.4,29.7,35.5,29.7,35.4C29.7,35.5,29.7,35.4,29.7,35.4z"/>
				<path d="M5.1,34.7L5.1,34.7L5.1,34.7L5.1,34.7L5.1,34.7z"/>
				<path d="M29.1,35.1c0.1,0.7,0.5,2.3,0.7,3h0.4c-0.1-0.8-0.3-1.6-0.4-2.5c0,0.1-0.9-2.5-0.9-2.4l0.4,1.7L29.1,35.1z"/>
				<path d="M5.2,35.2L5.1,35C5,35,5,34.9,5,34.8c-0.2,0.9-0.4,2-0.6,3.3h0.2C4.8,37,5,36,5.2,35.2L5.2,35.2z"/>
				<path d="M29.4,35.2L29.4,35.2c0,0.1,0,0.2,0,0.2l0,0l0,0c0,0.1,0,0.2,0,0.2l0,0c0,0.1,0,0.2,0.1,0.3l0.1-0.2c0,0,0-0.1,0-0.2
					v-0.1v-0.1C29.7,35.3,29.6,35.2,29.4,35.2L29.4,35.2z"/>
				<path d="M5.2,35.2c0-0.1,0-0.2,0.1-0.3l0,0c0,0,0,0,0-0.1l0,0l0,0c0-0.1,0-0.2,0.1-0.2l0,0c-0.1,0-0.3,0-0.3,0.2l0,0
					c0,0,0,0,0,0.1C5,34.9,5,35,5.1,35L5.2,35.2L5.2,35.2z"/>
				<path d="M29.4,35.2c-0.1,0-0.2,0.1-0.2,0.2h0.2C29.5,35.4,29.4,35.3,29.4,35.2z"/>
				<path d="M5.3,34.5c0,0.1,0,0.2-0.1,0.2h0.2C5.5,34.7,5.5,34.5,5.3,34.5z"/>
				<path d="M5.3,34.9L5.3,34.9C5.3,34.9,5.3,34.8,5.3,34.9C5.3,34.8,5.3,34.8,5.3,34.9L5.3,34.9z"/>
				<path d="M29.5,35.7c0,0,0-0.1,0-0.2C29.5,35.5,29.5,35.6,29.5,35.7L29.5,35.7L29.5,35.7z"/>
				<path d="M5.4,35.4l-0.2-0.2C5,36,4.8,37,4.7,38.1H5C5.1,37,5.2,36.2,5.4,35.4L5.4,35.4z"/>
				<path d="M29.4,36.3c0.1,0.6,0.2,1.2,0.3,1.8h0.2c-0.1-0.7-0.2-1.4-0.4-2.1L29.4,36.3L29.4,36.3z"/>
				<path d="M29.2,35.6L29.2,35.6L29.2,35.6L29.2,35.6z"/>
				<path d="M5.5,35.1l-0.2-0.2c0,0.1,0,0.2-0.1,0.3l0.2,0.2C5.4,35.3,5.4,35.2,5.5,35.1z"/>
				<path d="M29.4,36.3l0.2-0.3c0-0.1,0-0.2-0.1-0.3L29.3,36C29.3,36.1,29.4,36.2,29.4,36.3L29.4,36.3z"/>
				<path d="M5.3,34.8L5.3,34.8L5.3,34.8L5.3,34.8z"/>
				<path d="M29.5,35.5L29.5,35.5L29.5,35.5z"/>
				<path d="M29.3,35.6L29.3,35.6L29.3,35.6c0,0.1,0,0.2,0.1,0.4l0.2-0.3c0-0.1,0-0.1,0-0.2l0,0L29.3,35.6
					C29.3,35.5,29.3,35.5,29.3,35.6L29.3,35.6L29.3,35.6z"/>
				<path d="M5.5,34.8L5.5,34.8H5.3l0,0c0,0,0,0,0,0.1l0.2,0.2C5.5,35,5.5,34.9,5.5,34.8L5.5,34.8z"/>
				<path class="st0" d="M29.2,35.5L29.2,35.5L29.2,35.5z"/>
				<path class="st0" d="M5.5,34.7L5.5,34.7L5.5,34.7L5.5,34.7L5.5,34.7z"/>
				<path class="st0" d="M29.2,35.5c-0.2-1.1-0.4-1.8-0.5-2.2c0-0.1,0-0.3,0.2-0.3l0,0l-1.5-4.8c0,0,0,0-0.1,0L8.2,28.6
					c-0.3,0.4-1.7,2.3-2.6,6.2l0,0c0,0,0,0,0.1,0C6.6,35.2,16.8,39.6,29.2,35.5L29.2,35.5L29.2,35.5L29.2,35.5z"/>
			</g>
			<g>
				<path class="st0" d="M34.5,7.5c0,2.5-2.6,5.6-4.8,4.4C28,11,26.3,9.3,25.6,7.4c-0.9-2.3,2.1-4.3,4.5-4.3S34.5,5,34.5,7.5
					L34.5,7.5z"/>
				<path d="M30.7,12.4c-0.4,0-0.8-0.1-1.1-0.3c-2-1.1-3.5-2.8-4.3-4.6C25,6.7,25.1,5.8,25.7,5c0.9-1.3,2.7-2.2,4.5-2.2
					c2.6,0,4.7,2,4.7,4.7c0,1.7-1.1,3.6-2.6,4.5C31.7,12.3,31.2,12.4,30.7,12.4z M30.1,3.4c-1.5,0-3.3,0.8-4,1.9
					c-0.5,0.7-0.5,1.3-0.3,2c0.7,1.7,2.2,3.4,4,4.4c0.8,0.4,1.6,0.1,2.1-0.1c1.3-0.8,2.3-2.6,2.3-4C34.3,5.2,32.4,3.4,30.1,3.4
					L30.1,3.4z"/>
			</g>
			<g>
				<path class="st1" d="M26.3,30.3c4.5-1.3,6.3-4.6,6.3-4.6c0.8-1.6-0.2-3.3-0.2-3.3s-0.1-0.2-0.3-0.8s0-1.6,0-1.6
					c0.9-6.7-2.8-10.6-2.8-10.6C24.1,2.9,13.6,5,13.6,5S3.1,7.1,2,17c0,0-0.6,5.7,2,9.2c0,0,3,5,12.6,5.1
					C16.5,31.2,22,31.6,26.3,30.3L26.3,30.3z"/>
				<path d="M18.5,31.5c-1.2,0-2.1-0.1-2.1-0.1c-9.4,0-12.5-4.8-12.7-5.1c-2.6-3.5-2-9.1-2-9.3c0.6-5.3,3.8-8.3,6.4-10
					c2.8-1.8,5.4-2.3,5.5-2.3s2.7-0.5,6-0.3c4.4,0.4,7.8,2,10,4.7c0.2,0.3,3.8,4.2,2.9,10.9l0,0c0,0-0.2,0.9,0,1.5s0.3,0.8,0.3,0.8
					c0,0.1,1,1.8,0.2,3.6c-0.1,0.1-1.9,3.5-6.5,4.8l0,0C23.7,31.4,20.6,31.5,18.5,31.5L18.5,31.5z M17.6,4.9c-2.2,0-3.9,0.3-3.9,0.3
					s-2.6,0.5-5.3,2.2C4.7,9.8,2.7,13,2.2,17c0,0.1-0.6,5.6,1.9,9l0,0c0,0,3.1,4.9,12.3,4.9c0.1,0,5.5,0.4,9.8-0.8l0,0
					c4.3-1.2,6.2-4.5,6.2-4.5c0.7-1.5-0.2-3-0.2-3.1c0,0-0.1-0.2-0.4-0.9c-0.2-0.7,0-1.6,0-1.7c0.9-6.5-2.7-10.4-2.8-10.4l0,0
					C26,5.7,21,4.9,17.6,4.9L17.6,4.9z"/>
			</g>
			<path class="st0" d="M0.3,7.5c0,2.6,2.8,5.8,5,4.6c1-0.5,1.9-1.6,2.6-2.4c1.2-1.2,1.5-1.4,1.8-2c1.3-2.4-2-4.8-4.6-4.8
				S0.3,4.8,0.3,7.5L0.3,7.5z"/>
			<path class="st2" d="M30,18.3c0.4,1.2,0.5,2.6-0.1,3.5s-2.5,1.6-3.9,0.9c-1.5-0.7-2.5-2.8-2.5-4.6s1.1-3.1,2.8-3.1
				S29.5,16.6,30,18.3L30,18.3z"/>
			<path class="st2" d="M12.2,18.4c-0.4,1.2-0.5,2.7,0.1,3.6c0.7,0.9,2.6,1.6,4,0.9C18,22.2,19,20,19,18.2S17.8,15,16,15
				S12.8,16.6,12.2,18.4z"/>
			<circle cx="16.4" cy="19.5" r="1.4"/>
			<circle cx="26.1" cy="19.5" r="1.4"/>
			<g class="st3">
				<path class="st4" d="M32.4,23.2C32.6,24,32,24.8,31,25s-2-0.3-2.2-1.1s0.5-1.7,1.5-1.9S32.2,22.3,32.4,23.2z"/>
			</g>
			<g class="st3">
				<ellipse transform="matrix(0.116 -0.9932 0.9932 0.116 -13.8381 32.7418)" class="st4" cx="11.5" cy="24.1" rx="1.5" ry="2"/>
			</g>
			<g>
				<path d="M22.1,22.3l-0.7-0.6c-0.1-0.1,0-0.2,0.1-0.2l0,0c0.4-0.1,0.9-0.1,1.3,0l0,0c0.1,0,0.2,0.2,0.1,0.2L22.1,22.3
					C22.2,22.3,22.1,22.3,22.1,22.3L22.1,22.3z"/>
				<path d="M20.8,24c-0.5,0-0.9-0.1-1.2-0.3c-0.1-0.1-0.1-0.2-0.1-0.3c0.1-0.1,0.2-0.1,0.3-0.1c0.1,0,1.4,0.8,2.2-0.4
					c0.1-0.1,0.2-0.1,0.3-0.1s0.1,0.2,0.1,0.3C21.9,23.8,21.3,24,20.8,24L20.8,24z"/>
				<path d="M23.5,23.9c-0.1,0-0.1,0-0.2,0c-0.5-0.1-0.9-0.3-1.3-0.8c-0.1-0.1,0-0.2,0-0.3s0.2,0,0.3,0c0.3,0.4,0.6,0.6,1,0.6
					c0.5,0.1,1-0.3,1-0.3c0.1-0.1,0.2-0.1,0.3,0c0.1,0.1,0.1,0.2,0,0.3C24.6,23.6,24.1,23.9,23.5,23.9L23.5,23.9z"/>
			</g>
			<g>
				<g>
					<path class="st5" d="M13.7,5.4c0,0,0.3-1.3,5.3-1c0,0,3.9,0.4,5.8-1.7c0,0-1.1,2.8-5.4,3.5c0,0-1.4,0.3-2.8,0.4
						c-1.1,0.1-1.9,0-2.6-0.3C13.5,5.9,13.7,5.4,13.7,5.4L13.7,5.4z"/>
					<path d="M15.9,6.8c-0.9,0-1.6-0.1-2.1-0.4c-0.5-0.2-0.6-0.8-0.4-1.1c0.1-0.3,0.8-1.5,5.5-1.2c0,0,3.8,0.3,5.6-1.7l1-1L25,2.7
						c0,0.1-1.2,3-5.6,3.7c0,0-1.5,0.3-2.8,0.4C16.4,6.8,16.1,6.8,15.9,6.8z M13.9,5.5c0,0.1-0.1,0.3,0.1,0.4
						c0.6,0.3,1.4,0.4,2.5,0.3c1.3-0.1,2.7-0.3,2.8-0.4c2.2-0.3,3.5-1.2,4.3-2c-2,1-4.5,0.8-4.7,0.8C14.4,4.4,13.9,5.5,13.9,5.5
						L13.9,5.5L13.9,5.5z"/>
				</g>
				<g>
					<path class="st5" d="M13.5,5.6c0,0-0.3-0.6,2.1-2.1c0,0,1.9-1.2,2.9-2.1c0,0-0.8,1.2-2.2,2.8c0,0-0.4,0.6-1.1,1
						c-0.5,0.4-0.9,0.6-1.4,0.6C13.5,5.9,13.5,5.6,13.5,5.6z"/>
					<path d="M13.8,6.1c-0.3,0-0.5-0.3-0.6-0.5c-0.1-0.3,0-1,2.2-2.4c0,0,1.9-1.2,2.8-2.1L19.5,0l-0.9,1.5c0,0-0.8,1.3-2.2,2.8
						c0,0.1-0.4,0.7-1.1,1.1C14.8,5.8,14.3,6,13.8,6.1L13.8,6.1L13.8,6.1z M13.7,5.5C13.7,5.6,13.8,5.6,13.7,5.5
						c0.4,0,0.8-0.2,1.3-0.5c0.6-0.4,1-1,1-1l0,0c0.4-0.5,0.8-0.9,1.1-1.3c-0.7,0.5-1.4,1-1.4,1C13.9,4.8,13.7,5.4,13.7,5.5
						L13.7,5.5L13.7,5.5L13.7,5.5z"/>
				</g>
				<path d="M13.2,6.2c-1.3,0-2.3-0.9-2.4-0.9c-0.1-0.1-0.1-0.3,0-0.4s0.3-0.1,0.4,0c0,0,1,0.9,2.3,0.8c0.1,0,0.3,0.1,0.3,0.2
					c0,0.2-0.1,0.3-0.2,0.3C13.4,6.2,13.3,6.2,13.2,6.2L13.2,6.2z"/>
			</g>
			<g>
				<path class="st0" d="M10,6.8c0.2-2-2.7-3.9-4.9-3.9c-2.5,0-4.8,2-4.8,4.6c0,2.2,2,4.9,4,4.9"/>
				<path d="M4.2,12.6c-1,0-2.1-0.6-3-1.7C0.5,9.9,0,8.6,0,7.5c0-2.7,2.3-4.8,5.1-4.8c1.5,0,3.2,0.8,4.3,1.9c0.7,0.7,1,1.5,0.9,2.3
					c0,0.2-0.1,0.3-0.3,0.2C9.9,7.1,9.7,7,9.8,6.8C9.8,6,9.4,5.3,9,4.9c-0.9-1-2.5-1.7-3.9-1.7c-2.5,0-4.6,1.9-4.6,4.3
					c0,1,0.4,2.2,1.2,3.1c0.8,1,1.7,1.5,2.5,1.5l0,0c0.2,0,0.3,0.1,0.3,0.3C4.5,12.5,4.4,12.7,4.2,12.6C4.2,12.7,4.2,12.7,4.2,12.6z
					"/>
			</g>
			<g>
				<path class="st0" d="M6.7,33.7c0,0,8.1-1,10.5-3.9c0,0,1.9-2.2,3.9-1.1c0.2,0.1,0.4,0.2,0.5,0.4c0.6,0.5,1.8,1.7,1,3.3
					c0,0-2.6,4.3-6.6,6c0,0-2.4,1.3-4.6,1.4c-0.9,0-2.7-0.1-4.1-1.5C6.5,37.3,4.1,34.5,6.7,33.7L6.7,33.7z"/>
				<path d="M11.2,39.7c-1.1,0-2.5-0.2-3.5-0.9c-0.1-0.1-0.2-0.2-0.1-0.4c0.1-0.1,0.2-0.2,0.4-0.1c2.2,1.4,5.7,0.5,5.8,0.5
					c1.3-0.3,2.5-0.9,2.5-0.9c4.3-2.2,6-5.9,6-6l0,0c1-1.7-1.1-3.1-1.2-3.1c-1.8-1.2-3.6,0.9-3.7,1c-1.4,1.7-3.8,2.5-5.5,3
					c-0.1,0-0.3,0-0.3-0.2s0.1-0.3,0.2-0.3c1.7-0.4,3.9-1.2,5.2-2.8c0.7-0.9,2.6-2.2,4.4-1.1c0.9,0.6,2.3,2.1,1.4,3.8
					c-0.1,0.3-1.9,4-6.3,6.2c0,0-1.2,0.6-2.6,0.9C13.8,39.4,12.6,39.7,11.2,39.7L11.2,39.7z"/>
				<path d="M20,30.4c-0.1,0-0.2,0-0.2-0.1c-0.1-0.1,0-0.3,0.1-0.4c0,0,0.8-0.5,1-1.2c0-0.1,0.2-0.2,0.3-0.2c0.1,0,0.2,0.2,0.2,0.3
					c-0.3,0.9-1.2,1.5-1.3,1.5C20.1,30.4,20,30.4,20,30.4z"/>
				<path d="M21.1,31.6c-0.1,0-0.2,0-0.2-0.1c-0.1-0.1,0-0.3,0.1-0.4c0,0,0.8-0.5,1-1.2c0-0.1,0.2-0.2,0.3-0.2
					c0.1,0,0.2,0.2,0.2,0.3c-0.3,0.9-1.2,1.5-1.3,1.5C21.2,31.6,21.2,31.6,21.1,31.6z"/>
			</g>
		</g>
		<g>
			<g>
				<path class="st1" d="M35,21.2c0.2-0.1,0.3-0.1,0.3-0.1L35,21.2z"/>
				<path d="M35,21.5c-0.1,0-0.2-0.1-0.2-0.1c0-0.1,0-0.3,0.1-0.3l0.3-0.1c0.1-0.1,0.3,0,0.3,0.1c0.1,0.1,0,0.3-0.1,0.3
					c0,0-0.1,0.1-0.3,0.2C35,21.5,35,21.5,35,21.5L35,21.5z"/>
			</g>
			<g>
				<path class="st1" d="M31.3,21.6c0,0,0.1,0,0.3,0H31.3z"/>
				<path d="M31.8,22.1L31.8,22.1c-0.2,0-0.4-0.1-0.4-0.1c-0.1,0-0.2-0.2-0.2-0.3c0-0.1,0.1-0.2,0.3-0.2h0.3c0.1,0,0.2,0.1,0.2,0.3
					C32,22,31.9,22.1,31.8,22.1L31.8,22.1z"/>
			</g>
			<g>
				<path class="st6" d="M33.2,21l1.7,12l2-0.3l-1.7-11.6c0,0-0.1,0.1-0.3,0.1C34.6,21.4,33.8,21.6,33.2,21L33.2,21z"/>
				<path d="M34.9,33.2c0,0-0.1,0-0.2,0c0,0-0.1-0.1-0.1-0.2l-1.7-12c0-0.1,0-0.2,0.1-0.3c0.1,0,0.2,0,0.3,0
					c0.5,0.4,1.1,0.3,1.5,0.2c0.2-0.1,0.2-0.1,0.2-0.1c0.1,0,0.2,0,0.2,0c0.1,0,0.1,0.1,0.1,0.2L37,32.6c0,0.1-0.1,0.3-0.2,0.3
					L34.9,33.2C35,33.2,35,33.2,34.9,33.2L34.9,33.2z M33.6,21.5l1.6,11.2l1.5-0.2l-1.6-11C34.7,21.6,34.1,21.8,33.6,21.5z"/>
			</g>
			<g>
				<path class="st7" d="M31.3,21.6L33,33.3l2-0.3l-1.7-12c-0.4,0.7-1.2,0.7-1.6,0.7C31.4,21.7,31.3,21.7,31.3,21.6L31.3,21.6z"/>
				<path d="M33,33.5c-0.1,0-0.2-0.1-0.2-0.2l-1.6-11.6c0-0.1,0-0.2,0.1-0.2s0.1-0.1,0.2,0l0,0c0,0,0.1,0,0.3,0c0.4,0,1,0,1.4-0.6
					c0.1-0.1,0.2-0.1,0.3-0.1s0.2,0.1,0.2,0.2l1.7,12c0,0.1,0,0.1,0,0.2c0,0-0.1,0.1-0.2,0.1L33,33.5L33,33.5L33,33.5z M31.6,22
					l1.6,11l1.5-0.2l-1.6-11.2C32.6,22,32,22,31.6,22L31.6,22z M31.3,21.7L31.3,21.7L31.3,21.7z"/>
			</g>
			<g>
				<polygon points="32.6,16.6 32.1,18.6 33.7,18.4 				"/>
				<g>
					<path d="M32.1,18.9c-0.1,0-0.1,0-0.2-0.1s-0.1-0.1-0.1-0.2l0.5-2c0-0.1,0.1-0.2,0.2-0.2c0.1,0,0.2,0,0.3,0.1l1.1,1.8
						c0,0.1,0,0.2,0,0.2c0,0.1-0.1,0.1-0.2,0.1L32.1,18.9L32.1,18.9z M32.7,17.2l-0.3,1.1l0.9-0.1L32.7,17.2z"/>
				</g>
			</g>
			<g>
				<path class="st8" d="M31.3,21.6h0.3c0.4,0,1.2,0,1.6-0.7c0.6,0.5,1.3,0.4,1.7,0.2l0.3-0.1l-1.6-2.7L32,18.5L31.3,21.6L31.3,21.6
					z"/>
				<path d="M31.9,22c-0.1,0-0.2,0-0.3,0l0,0h-0.3c-0.1,0-0.1,0-0.2-0.1c0-0.1,0-0.1,0-0.2l0.8-3c0-0.1,0.1-0.2,0.2-0.2l1.6-0.2
					c0.1,0,0.2,0,0.2,0.1l1.6,2.7c0,0.1,0,0.1,0,0.2s-0.1,0.1-0.1,0.1l-0.3,0.1l0,0c-0.4,0.2-1.1,0.3-1.8-0.1
					C32.9,21.9,32.3,22,31.9,22L31.9,22z M31.7,21.5c0.4,0,1,0,1.4-0.6c0-0.1,0.1-0.1,0.2-0.1c0.1,0,0.2,0,0.2,0.1
					c0.5,0.4,1.1,0.3,1.5,0.2l0,0l-1.4-2.3L32.3,19L31.7,21.5L31.7,21.5L31.7,21.5z"/>
			</g>
			<g>
				<rect x="33.1" y="33" transform="matrix(0.99 -0.1409 0.1409 0.99 -4.4112 5.2832)" class="st1" width="4" height="1.6"/>
				<path d="M33.2,35.1c-0.1,0-0.2-0.1-0.2-0.2l-0.2-1.6c0-0.1,0-0.1,0-0.2S32.9,33,33,33l3.9-0.6c0.1,0,0.1,0,0.2,0
					c0,0,0.1,0.1,0.1,0.2l0.2,1.6c0,0.1-0.1,0.3-0.2,0.3L33.2,35.1L33.2,35.1L33.2,35.1z M33.2,33.5l0.2,1.1l3.5-0.5L36.7,33
					L33.2,33.5z"/>
			</g>
			<g>
				<path class="st1" d="M33.2,34.8l0.3,2c0,0.2,0.2,0.4,0.5,0.3l3.2-0.5c0.2,0,0.4-0.2,0.3-0.5l-0.3-2L33.2,34.8z"/>
				<path d="M33.9,37.5c-0.1,0-0.3,0-0.4-0.1c-0.1-0.1-0.2-0.3-0.3-0.4l-0.3-2c0-0.1,0.1-0.3,0.2-0.3l4-0.6c0.1,0,0.1,0,0.2,0
					c0,0,0.1,0.1,0.1,0.2l0.3,2c0,0.2,0,0.3-0.1,0.5c-0.1,0.1-0.3,0.2-0.4,0.3L33.9,37.5C34,37.5,33.9,37.5,33.9,37.5L33.9,37.5z
					 M33.5,35.1l0.2,1.8c0,0,0,0.1,0.1,0.1h0.1l3.2-0.5c0,0,0.1,0,0.1-0.1s0-0.1,0-0.1L37,34.5L33.5,35.1z"/>
			</g>
		</g>
		<g>
			<path class="st0" d="M38.3,27.3c0.1,1.7-0.7,3.5-1.8,3.2c-0.1,0-0.5-0.2-0.8-0.5s-0.2-1.1-0.5-1.4c-0.5-0.6-0.4-1.5-0.2-1.8
				c0.2-0.4-0.1-0.6,0-1.3c0.1-0.6,0.8-1,1.2-1C37.3,24.3,38.2,25.6,38.3,27.3L38.3,27.3z"/>
			<path d="M36.8,30.8c-0.1,0-0.2,0-0.3,0c-0.4-0.1-0.8-0.4-1-0.6s-0.3-0.6-0.3-0.9c0-0.2-0.1-0.5-0.2-0.6c-0.5-0.7-0.4-1.7-0.2-2.1
				c0-0.1,0-0.1,0-0.3c0-0.2-0.1-0.5,0-0.9c0.1-0.7,0.9-1.2,1.5-1.3c0.6,0,1.2,0.3,1.7,1c0.4,0.6,0.7,1.4,0.7,2.3
				c0.1,1.3-0.4,2.7-1.1,3.3C37.3,30.7,37.1,30.8,36.8,30.8L36.8,30.8z M36.3,24.6L36.3,24.6c-0.4,0-0.9,0.4-1,0.8
				c-0.1,0.3,0,0.5,0,0.7s0.1,0.4,0,0.7c-0.1,0.2-0.2,1,0.2,1.5c0.2,0.2,0.2,0.5,0.3,0.8c0,0.2,0.1,0.5,0.2,0.6
				c0.2,0.2,0.4,0.3,0.7,0.4c0.2,0.1,0.3,0,0.5-0.1c0.5-0.4,0.9-1.6,0.9-2.8l0,0c0-0.8-0.3-1.5-0.6-2C37.1,24.9,36.7,24.6,36.3,24.6
				L36.3,24.6z"/>
		</g>
	</g>
</g>
</svg>
