<?xml version="1.0" encoding="utf-8"?>
<!-- Generator: Adobe Illustrator 27.8.1, SVG Export Plug-In . SVG Version: 6.00 Build 0)  -->
<svg version="1.1" id="레이어_1" xmlns="http://www.w3.org/2000/svg" xmlns:xlink="http://www.w3.org/1999/xlink" x="0px"
	 y="0px" width="449px" height="388px" viewBox="0 0 449 388" style="enable-background:new 0 0 449 388;" xml:space="preserve">
<style type="text/css">
	.st0{fill:#010101;}
	.st1{display:none;}
	.st2{display:inline;fill:#010101;}
</style>
<g>
	<path class="st0" d="M324.8,164.7c-1.2,0-4.2,1.2-9,3.6c-16.8,12-42.2,21-75.8,27l-1.6,9c12,2.4,30.6,0.6,55.7-5.4
		c13.2-2.4,20.4-3,21.6-1.8c1.1,1.1,1.4,4.8,1.7,6.3c0.4,2.5,0.6,5.1,0.6,7.6c0,6.3-0.9,12.6-2.2,18.7c-2.1,10.1-5.3,19.9-8.9,29.6
		c-3.5,9.4-7,18.9-12.3,27.5c-4.5,7.4-9.6,14.2-15.6,20.4c-5.4,5.6-11.1,10.8-17.1,15.8c-13.9,11.5-28.9,21.4-44.5,30.4
		c-6.7,3.9-13.6,7.7-20.5,11.2c-9.6,4.8-8.4,6.6,3.6,5.4c8.5-0.9,17.5-4.3,25.6-7.1c8.3-2.9,16.4-6.4,24.2-10.4
		c15.5-8,29.3-18.1,42.3-29.8c6.6-5.9,11.8-13,16.4-20.6c4.7-7.9,9.8-15.7,13.5-24.1c3.4-7.5,6.2-15.2,8.8-22.9
		c2.2-6.7,4-13.5,6.1-20.2c1.2-3.6,2.4-6.6,3.6-9c4.8-14.4,10.8-25.2,18-32.4c2.4-2.4,3.6-4.2,3.6-5.4
		C359,177.4,346.4,169.6,324.8,164.7z"/>
</g>
<g class="st1">
	<path class="st2" d="M438.2,366.4c-44.3-11.9-82.8-32.1-115.4-60.5c-1.7-1.5-3.3-3-5-4.5c-1.6-1.4-3.1-2.8-4.6-4.3
		c-2-2-4-4.1-6.1-6c-4.3-3.8-10.8-11.1-11.2-11.5c-0.6-0.8-1.3-1.6-1.9-2.3c-1.2-1.5-2.4-3-3.6-4.5c-2.5-3.1-4.9-6.2-7.3-9.4
		c-1.7-2.2-3.4-4.5-5.1-6.7c-12-18-26.4-28.2-43.2-30.6c0,0-1.9,7.4-1.8,7.2c0,0.1,8.1,6.6,8.7,7.1c4.2,4,8.2,8.3,12.1,12.7
		c12.6,14.2,24.1,29.2,35.8,44c-0.4-0.4-0.7-0.8-1.1-1.3c5.7,6.7,10.1,13.9,14.8,21.3c4.9,7.7,10.6,15,16.1,22.3
		c13.2,18,22.2,29.4,27,34.2c-1.2,8.4,30,10.2,93.6,5.4c6-1.2,9-3,9-5.4C449,371.3,445.4,368.9,438.2,366.4z"/>
</g>
<g>
</g>
<g>
</g>
<g>
</g>
<g>
</g>
<g>
</g>
<g>
</g>
</svg>
