<?xml version="1.0" encoding="utf-8"?>
<!-- Generator: Adobe Illustrator 27.8.1, SVG Export Plug-In . SVG Version: 6.00 Build 0)  -->
<svg version="1.1" id="레이어_1" xmlns="http://www.w3.org/2000/svg" xmlns:xlink="http://www.w3.org/1999/xlink" x="0px"
	 y="0px" width="449px" height="388px" viewBox="0 0 449 388" style="enable-background:new 0 0 449 388;" xml:space="preserve">
<style type="text/css">
	.st0{fill:#010101;}
	.st1{display:none;}
	.st2{display:inline;fill:#010101;}
</style>
<g>
	<path class="st0" d="M236.3,220.5c0.3-1.5,0.6-3,0.8-4.5c0.8-5,1.2-10.1,1.8-15.1c0.4-3.2,1.3-6.4,1.6-9.6c0.4-3.5,0.9-7,1.3-10.4
		c1.4-11,2.7-21.9,4.1-32.9c0.9-7,1.8-14,2.6-21c0-0.1,0-0.1,0-0.2l0.2-1.6c0.6-5.3-0.2-8.2-0.2-8.2c-0.4-2.3-3.6-3.9-5.9-4.7
		c-12.8-4.5-22.7-5.6-29.7-3.3c-1.2,1.2-1.2,2.4,0,3.6c3.6,8.4,5.4,26.4,5.4,54c-1.2,78-31.2,150.1-90,216.1
		c-6,7.2-1.8,6.6,12.6-1.8c3-1.8,5.8-4.6,8.5-6.9c2.8-2.4,5.6-5,8.3-7.5c5.5-5.2,10.7-10.8,15.6-16.6c10.3-12.1,19.4-25.2,27.3-39
		c8.6-15,15.8-30.8,21.9-47c2.8-7.5,5.4-15,7.8-22.6C232.6,234.4,234.8,227.5,236.3,220.5z"/>
</g>
<g class="st1">
	<path class="st2" d="M438.2,366.4c-44.3-11.9-82.8-32.1-115.4-60.5c-1.7-1.5-3.3-3-5-4.5c-1.6-1.4-3.1-2.8-4.6-4.3
		c-2-2-4-4.1-6.1-6c-4.3-3.8-10.8-11.1-11.2-11.5c-0.6-0.8-1.3-1.6-1.9-2.3c-1.2-1.5-2.4-3-3.6-4.5c-2.5-3.1-4.9-6.2-7.3-9.4
		c-1.7-2.2-3.4-4.5-5.1-6.7c-12-18-26.4-28.2-43.2-30.6c0,0-1.9,7.4-1.8,7.2c0,0.1,8.1,6.6,8.7,7.1c4.2,4,8.2,8.3,12.1,12.7
		c12.6,14.2,24.1,29.2,35.8,44c-0.4-0.4-0.7-0.8-1.1-1.3c5.7,6.7,10.1,13.9,14.8,21.3c4.9,7.7,10.6,15,16.1,22.3
		c13.2,18,22.2,29.4,27,34.2c-1.2,8.4,30,10.2,93.6,5.4c6-1.2,9-3,9-5.4C449,371.3,445.4,368.9,438.2,366.4z"/>
</g>
<g>
</g>
<g>
</g>
<g>
</g>
<g>
</g>
<g>
</g>
<g>
</g>
</svg>
