<?xml version="1.0" encoding="utf-8"?>
<!-- Generator: Adobe Illustrator 27.8.1, SVG Export Plug-In . SVG Version: 6.00 Build 0)  -->
<svg version="1.1" id="레이어_1" xmlns="http://www.w3.org/2000/svg" xmlns:xlink="http://www.w3.org/1999/xlink" x="0px"
	 y="0px" width="449px" height="388px" viewBox="0 0 449 388" style="enable-background:new 0 0 449 388;" xml:space="preserve">
<style type="text/css">
	.st0{fill:#010101;}
</style>
<g>
	<path class="st0" d="M85.1,155.2c1.1-1.8,2.3-3.6,3.4-5.3c2.7-4.1,5.4-7.9,5.8-8.5c5.7-8.5,12.8-21.4,21.4-38.5
		c9.6-19.2,16.2-30.6,19.8-34.2C133,52,119.3,40.6,94,34.6c-1.2,2.4-1.2,4.8,0,7.2c3.6,12,1.2,30.6-7.2,55.8
		C70,148,43,194.3,5.8,236.3c-4.8,6-6.6,9.6-5.4,10.8c2.4,1.2,6.6-0.6,12.6-5.4C37,226.1,61,197.3,85.1,155.2
		C85.1,155.2,85.1,155.2,85.1,155.2z"/>
</g>
<g>
</g>
<g>
</g>
<g>
</g>
<g>
</g>
<g>
</g>
<g>
</g>
</svg>
