<?xml version="1.0" encoding="utf-8"?>
<!-- Generator: Adobe Illustrator 25.0.1, SVG Export Plug-In . SVG Version: 6.00 Build 0)  -->
<svg version="1.1" id="레이어_1" xmlns="http://www.w3.org/2000/svg" xmlns:xlink="http://www.w3.org/1999/xlink" x="0px"
	 y="0px" viewBox="0 0 69.8 147" style="enable-background:new 0 0 69.8 147;" xml:space="preserve">
<style type="text/css">
	.st0{fill:#F39A9A;}
	.st1{fill:#FFFFFF;}
	.st2{fill:#F2F2F2;}
	.st3{fill:#B2B2B2;}
	.st4{fill:#B2B2B2;stroke:#B2B2B2;stroke-width:0.8839;stroke-miterlimit:10;}
	.st5{fill:#FFFFFF;stroke:#B2B2B2;stroke-width:0.8839;stroke-miterlimit:10;}
</style>
<g>
	<path class="st0" d="M64.9,69.9H5.1c-2.8,0-5-2.2-5-5V5.1c0-2.8,2.2-5,5-5h59.8c2.8,0,5,2.2,5,5v59.8
		C69.9,67.6,67.6,69.9,64.9,69.9z"/>
	<g>
		<g>
			<path class="st1" d="M22.1,28.6h-7.4c-0.9,0-1.6,0.7-1.6,1.6v22.9c0,0.9,0.7,1.6,1.6,1.6h7.4c0.9,0,1.6-0.7,1.6-1.6V30.2
				C23.7,29.3,22.9,28.6,22.1,28.6z"/>
			<g>
				<path class="st1" d="M59.2,31.3c-0.3-1.6-1.7-2.7-3.3-2.7H42.8c-0.6,0-1-0.5-0.9-1.1l1.4-7.4c0.3-1.4,0.4-2.7,0.4-3.9
					c0-2.5-1.6-4.4-3.5-4.4l0,0c-1.1,0-2.1,1-2.3,2.3l-0.2,1.8c-0.2,1.4-0.7,2.9-1.5,4.3l0,0c-1.2,2-2.6,4-4.2,6l-1.1,1.3
					c-0.6,0.7-1.5,1.1-2.5,1.1c-0.7,0-1.3,0.6-1.3,1.3v18.3V49v3.8c0,1.1,0.9,1.9,1.9,1.9h8.7h11.7h1.3c1.6,0,3.1-1.1,3.3-2.7
					c0.3-2-1.2-3.8-3.2-3.8h0.8h1.3c1.6,0,3.1-1.1,3.3-2.7c0.3-2-1.2-3.8-3.2-3.8h0.9c1.6,0,3.1-1.1,3.3-2.7c0.3-2-1.2-3.8-3.2-3.8
					h2.1C58,35.1,59.5,33.3,59.2,31.3z"/>
			</g>
		</g>
		<circle class="st0" cx="20.6" cy="51.4" r="1.7"/>
	</g>
</g>
<g>
	<g>
		<g>
			<path class="st2" d="M5.1,146.5c-2.5,0-4.6-2-4.6-4.6V82.2c0-2.5,2-4.6,4.6-4.6h59.8c2.5,0,4.6,2,4.6,4.6V142
				c0,2.5-2,4.6-4.6,4.6H5.1V146.5z"/>
			<path class="st3" d="M64.9,78.1c2.3,0,4.1,1.8,4.1,4.1V142c0,2.3-1.8,4.1-4.1,4.1H5.1c-2.3,0-4.1-1.8-4.1-4.1V82.2
				c0-2.3,1.8-4.1,4.1-4.1H64.9 M64.9,77.2H5.1c-2.8,0-5,2.2-5,5V142c0,2.8,2.2,5,5,5h59.8c2.8,0,5-2.2,5-5V82.2
				C69.9,79.4,67.6,77.2,64.9,77.2L64.9,77.2z"/>
		</g>
	</g>
	<g>
		<g>
			<path class="st4" d="M22.1,105.7h-7.4c-0.9,0-1.6,0.7-1.6,1.6v22.9c0,0.9,0.7,1.6,1.6,1.6h7.4c0.9,0,1.6-0.7,1.6-1.6v-22.9
				C23.7,106.4,22.9,105.7,22.1,105.7z"/>
			<path class="st5" d="M59.2,108.4c-0.3-1.6-1.7-2.7-3.3-2.7H42.8c-0.6,0-1-0.5-0.9-1.1l1.4-7.4c0.3-1.4,0.4-2.7,0.4-3.9
				c0-2.5-1.6-4.4-3.5-4.4l0,0c-1.1,0-2.1,1-2.3,2.3L37.7,93c-0.2,1.4-0.7,2.9-1.5,4.3l0,0c-1.2,2-2.6,4-4.2,6l-1.1,1.3
				c-0.6,0.7-1.5,1.1-2.5,1.1c-0.7,0-1.3,0.6-1.3,1.3v18.3v0.8v3.8c0,1.1,0.9,1.9,1.9,1.9h8.7h11.7h1.3c1.6,0,3.1-1.1,3.3-2.7
				c0.3-2-1.2-3.8-3.2-3.8h0.8h1.3c1.6,0,3.1-1.1,3.3-2.7c0.3-2-1.2-3.8-3.2-3.8h0.9c1.6,0,3.1-1.1,3.3-2.7c0.3-2-1.2-3.8-3.2-3.8
				h2.1C58,112.2,59.5,110.4,59.2,108.4z"/>
		</g>
		<g>
			<circle class="st1" cx="20.6" cy="128.5" r="1.4"/>
		</g>
	</g>
</g>
</svg>
