<?xml version="1.0" encoding="utf-8"?>
<!-- Generator: Adobe Illustrator 27.8.1, SVG Export Plug-In . SVG Version: 6.00 Build 0)  -->
<svg version="1.1" id="레이어_1" xmlns="http://www.w3.org/2000/svg" xmlns:xlink="http://www.w3.org/1999/xlink" x="0px"
	 y="0px" width="449px" height="388px" viewBox="0 0 449 388" style="enable-background:new 0 0 449 388;" xml:space="preserve">
<style type="text/css">
	.st0{fill:#010101;}
</style>
<g>
	<path class="st0" d="M129.1,147.2c12-3.6,19.2-5.4,21.6-5.4c1.2,0-1.2,9-7.2,27c-9.6,24-10.8,31.8-3.6,23.4
		c16.8-18,32.4-31.8,46.8-41.4c3.6-3.6,5.4-6,5.4-7.2c-3.6-9.6-15.6-18-36-25.2c-3.6,0-8.4,2.4-14.4,7.2
		c-14.4,9.6-31.2,16.2-50.4,19.8c-0.3,0.5-1.9,2.7-3.8,5.6c-1.2,1.8-2.4,3.6-3.4,5.3C91.3,158.7,106.3,155.6,129.1,147.2z"/>
</g>
<g>
</g>
<g>
</g>
<g>
</g>
<g>
</g>
<g>
</g>
<g>
</g>
</svg>
