<?xml version="1.0" encoding="utf-8"?>
<!-- Generator: Adobe Illustrator 27.8.1, SVG Export Plug-In . SVG Version: 6.00 Build 0)  -->
<svg version="1.1" id="레이어_1" xmlns="http://www.w3.org/2000/svg" xmlns:xlink="http://www.w3.org/1999/xlink" x="0px"
	 y="0px" width="449px" height="388px" viewBox="0 0 449 388" style="enable-background:new 0 0 449 388;" xml:space="preserve">
<style type="text/css">
	.st0{fill:#010101;}
</style>
<g>
	<path class="st0" d="M159.3,284.1c-2.4,1.2-10.2,7.2-23.4,18c-15.6,10.8-25.8,18-30.6,21.6c1.2-28.8,3-54,5.4-75.6
		c0-8.4,1.8-16.8,5.4-25.2c1.2-7.2,1.2-12,0-14.4c-13.2-13.2-24.6-18.6-34.2-16.2c-1.2,1.2-0.6,4.8,1.8,10.8
		c4.8,13.2,7.2,27,7.2,41.4c-1.2,19.2-1.8,37.2-1.8,54c-1.2,15.6-7.2,30.6-18,45c-4.8,3.6-7.2,6.6-7.2,9
		c-1.2,19.2,3.6,30.6,14.4,34.2c2.4,0,4.8-2.4,7.2-7.2c7.2-12,16.2-23.4,27-34.2C159.3,293.7,174.9,273.3,159.3,284.1z"/>
</g>
<g>
</g>
<g>
</g>
<g>
</g>
<g>
</g>
<g>
</g>
<g>
</g>
</svg>
