<?xml version="1.0" encoding="utf-8"?>
<!-- Generator: Adobe Illustrator 27.7.0, SVG Export Plug-In . SVG Version: 6.00 Build 0)  -->
<svg version="1.1" id="레이어_1" xmlns="http://www.w3.org/2000/svg" xmlns:xlink="http://www.w3.org/1999/xlink" x="0px"
	 y="0px" width="41px" height="41px" viewBox="0 0 41 41" style="enable-background:new 0 0 41 41;" xml:space="preserve">
<g>
	<g>
		<g>
			<g>
				<path style="fill:#5A98FF;" d="M20.5,39.5c-10.5,0-19-8.5-19-19c0-10.5,8.5-19,19-19s19,8.5,19,19C39.5,31,31,39.5,20.5,39.5z"
					/>
				<path style="fill:#FFFFFF;" d="M20.5,2.5c9.9,0,18,8.1,18,18c0,9.9-8.1,18-18,18s-18-8.1-18-18C2.5,10.6,10.6,2.5,20.5,2.5
					 M20.5,0.5c-11,0-20,9-20,20c0,11,9,20,20,20s20-9,20-20C40.5,9.5,31.5,0.5,20.5,0.5L20.5,0.5z"/>
			</g>
		</g>
	</g>
	<path style="fill:#FFFFFF;" d="M20.5,10.5c-2.6,0-5,1-6.9,2.8v-1.8c0-0.3-0.1-0.5-0.3-0.7c-0.2-0.2-0.4-0.3-0.7-0.3
		s-0.5,0.1-0.7,0.3c-0.2,0.2-0.3,0.4-0.3,0.7V16c0,0.3,0.1,0.5,0.3,0.7c0.2,0.2,0.4,0.3,0.7,0.3h4.5c0.3,0,0.5-0.1,0.7-0.3
		c0.2-0.2,0.3-0.4,0.3-0.7c0-0.3-0.1-0.5-0.3-0.7c-0.2-0.2-0.4-0.3-0.7-0.3h-2.4c1.3-1.3,3-2.2,4.8-2.4c1.8-0.2,3.7,0.2,5.3,1.2
		c1.6,1,2.7,2.5,3.3,4.3c0.6,1.8,0.5,3.7-0.2,5.4c-0.7,1.7-2,3.2-3.6,4s-3.5,1.2-5.4,0.8c-1.8-0.4-3.5-1.3-4.6-2.8
		c-1.2-1.4-1.8-3.2-1.8-5.1c0-0.3-0.1-0.5-0.3-0.7c-0.2-0.2-0.4-0.3-0.7-0.3s-0.5,0.1-0.7,0.3c-0.2,0.2-0.3,0.4-0.3,0.7
		c0,2,0.6,3.9,1.7,5.6c1.1,1.6,2.7,2.9,4.5,3.7c1.8,0.8,3.8,1,5.8,0.6c1.9-0.4,3.7-1.3,5.1-2.7c1.4-1.4,2.4-3.2,2.7-5.1
		c0.4-1.9,0.2-4-0.6-5.8c-0.8-1.8-2-3.4-3.7-4.5C24.4,11.1,22.5,10.5,20.5,10.5z"/>
</g>
</svg>
