<?xml version="1.0" encoding="utf-8"?>
<!-- Generator: Adobe Illustrator 27.8.1, SVG Export Plug-In . SVG Version: 6.00 Build 0)  -->
<svg version="1.1" id="Layer_2" xmlns="http://www.w3.org/2000/svg" xmlns:xlink="http://www.w3.org/1999/xlink" x="0px" y="0px"
	 width="70px" height="27px" viewBox="0 0 70 27" style="enable-background:new 0 0 70 27;" xml:space="preserve">
<style type="text/css">
	.st0{fill:#5A98FF;}
	.st1{fill:#FFFFFF;}
</style>
<g id="Layer_1-2">
	<g>
		<g>
			<path class="st0" d="M12,3.7h46c6.4,0,11.5,5.1,11.5,11.5l0,0c0,6.4-5.1,11.5-11.5,11.5H12c-6.4,0-11.5-5.1-11.5-11.5l0,0
				C0.5,8.8,5.6,3.7,12,3.7z"/>
			<path class="st0" d="M37.4,3.7h-4.8l1.5-2.9c0.4-0.7,1.4-0.7,1.8,0L37.4,3.7z"/>
		</g>
		<g>
			<path class="st1" d="M17.4,19v1.6h-4.1c-0.6,0-0.8-0.1-1.2-0.5l-0.7-0.8C11.1,18.9,11,18.7,11,18v-7.6c0-0.4,0.2-0.5,0.5-0.5h5.4
				v1.5h-4.1V18c0,0.2,0,0.3,0.1,0.4l0.4,0.5c0.1,0.1,0.2,0.2,0.3,0.2H17.4z M20.4,9.5V14h1.5v1.6h-1.5v5.9h-1.7v-12H20.4z"/>
			<path class="st1" d="M29.9,19.3l-1.2,1.1c-0.9-1.1-1.8-2.3-2.5-3.5c-0.1-0.1-0.1-0.2-0.1-0.3c0,0.1-0.1,0.3-0.1,0.3
				c-0.7,1.2-1.5,2.4-2.4,3.6l-1.2-1.1c0.9-1.2,1.8-2.5,2.5-3.9c0.2-0.4,0.3-1,0.3-1.6V9.7H27V14c0,0.6,0.1,1.2,0.3,1.6
				C28.1,16.8,29,18.1,29.9,19.3z M32.6,9.5v12h-1.7v-12H32.6z"/>
			<path class="st1" d="M37,12.6v-1.6h2.6V9.5h1.7v1.6h2.6v1.6H37z M43.2,16.5v1.3c0,1.8-1,3.1-2.8,3.1s-2.8-1.3-2.8-3.1v-1.3
				c0-1.8,1-3.1,2.8-3.1S43.2,14.7,43.2,16.5z M41.5,16.5c0-1-0.4-1.6-1.1-1.6s-1.1,0.6-1.1,1.6v1.3c0,1,0.4,1.6,1.1,1.6
				s1.1-0.6,1.1-1.6V16.5z M46.5,9.5v5h1.5v1.5h-1.5v5.4h-1.7v-12H46.5z"/>
			<path class="st1" d="M48.9,19.2c1.4-1.2,2.4-2.1,3.1-2.8c1.2-1.2,1.2-1.8,1.2-2.5v-2.5h-4V9.9h5.2c0.3,0,0.5,0.2,0.5,0.5v3.4
				c0,1.4-0.2,2.2-1.7,3.7c-0.8,0.8-1.8,1.8-3.4,3L48.9,19.2z M58.7,9.5v12H57v-12H58.7z"/>
		</g>
	</g>
</g>
</svg>
