<?xml version="1.0" encoding="utf-8"?>
<!-- Generator: Adobe Illustrator 27.7.0, SVG Export Plug-In . SVG Version: 6.00 Build 0)  -->
<svg version="1.1" id="레이어_1" xmlns="http://www.w3.org/2000/svg" xmlns:xlink="http://www.w3.org/1999/xlink" x="0px"
	 y="0px" width="290px" height="58px" viewBox="0 0 290 58" style="enable-background:new 0 0 290 58;" xml:space="preserve">
<g>
	<path style="fill:#7C5F18;" d="M288,0H2C0.9,0,0,0.9,0,2v5.9h290V2C290,0.9,289.1,0,288,0z"/>
	<path style="fill:#FFC72E;" d="M250.1,55H39.8c-11,0-20.7-6.9-23.7-16.8L2.2,0h285.6l-13.9,38.1C270.9,48.1,261.2,55,250.1,55z"/>
	<g>
		<ellipse style="fill:#F8E8AD;" cx="36.2" cy="44.2" rx="4" ry="4"/>
		<ellipse style="fill:#F8E8AD;" cx="253.8" cy="44.2" rx="4" ry="4"/>
	</g>
	<g>
		<path style="fill:#F3B419;" d="M251.1,52.9H38.8c-8.6,0-16.4-4.1-21-10.5C21.3,51.7,30.6,58,41.2,58h207.6
			c10.6,0,19.9-6.3,23.3-15.6C267.5,48.8,259.7,52.9,251.1,52.9z"/>
	</g>
	<g style="opacity:0.8;">
		<linearGradient id="SVGID_1_" gradientUnits="userSpaceOnUse" x1="144.9758" y1="13.7227" x2="144.9758" y2="0">
			<stop  offset="0" style="stop-color:#FFC72E"/>
			<stop  offset="1" style="stop-color:#DFA517"/>
		</linearGradient>
		<polygon style="fill:url(#SVGID_1_);" points="287.8,0 2.2,0 7.2,13.7 282.8,13.7 		"/>
	</g>
	<g style="opacity:0.7;">
		<ellipse style="fill:#F8E8AD;" cx="21.2" cy="8.7" rx="4" ry="4"/>
		<ellipse style="fill:#F8E8AD;" cx="268.8" cy="8.7" rx="4" ry="4"/>
	</g>
</g>
<g>
</g>
<g>
</g>
<g>
</g>
<g>
</g>
<g>
</g>
<g>
</g>
</svg>
