<svg xmlns="http://www.w3.org/2000/svg" viewBox="0 0 47.15 58.15"><defs><style>.cls-1{fill:#e6ff9f;}</style></defs><g id="레이어_2" data-name="레이어 2"><g id="Layer_1" data-name="Layer 1"><path class="cls-1" d="M1,29.55S23.28,29.31,23.28,1c0,0,0,28.67,22.87,28.67,0,0-22.58.48-22.58,27.48C23.57,57.15,24.25,29.55,1,29.55Z"/><path class="cls-1" d="M23.57,58.15h0a1,1,0,0,1-1-1v-.31c0-2-.4-13.71-7.29-20.77C11.7,32.41,6.89,30.55,1,30.55a1,1,0,0,1-1-1,1,1,0,0,1,1-1c.87,0,21.29-.6,21.29-27.55a1,1,0,0,1,1-1h0a1,1,0,0,1,1,1c0,1.13.28,27.67,21.87,27.67a1,1,0,0,1,0,2c-.88,0-21.34.8-21.6,26,0,.28,0,.45,0,.51A1,1,0,0,1,23.57,58.15ZM7.26,29.29a19.58,19.58,0,0,1,9.46,5.4c3.85,3.94,5.81,9.08,6.82,13.45,2.73-11.7,10.7-16.38,16.4-18.24C29.43,27.1,25.18,17.27,23.45,9.84,20.9,22.39,13,27.34,7.26,29.29Z"/></g></g></svg>